<svg width="46" height="20" viewBox="0 0 46 20" fill="none" xmlns="http://www.w3.org/2000/svg">
<path d="M13.8892 17.2318V19.1925H0.39643V17.4769L7.14989 10.6272C7.98051 9.78442 8.62235 9.07064 9.07541 8.48586C9.53791 7.89247 9.85883 7.36359 10.0382 6.8992C10.2269 6.42622 10.3213 5.94463 10.3213 5.45445C10.3213 4.83527 10.1797 4.27628 9.89658 3.7775C9.62286 3.27011 9.21699 2.86593 8.67898 2.56494C8.14097 2.26395 7.48969 2.11345 6.72515 2.11345C5.80958 2.11345 5.04504 2.27685 4.43152 2.60364C3.82743 2.92183 3.37437 3.36901 3.07233 3.94519C2.77029 4.52138 2.61927 5.18356 2.61927 5.93173H0C0 4.87397 0.254848 3.9065 0.764543 3.02932C1.27424 2.15215 2.02934 1.45557 3.02986 0.939586C4.03037 0.415002 5.26213 0.15271 6.72515 0.15271C8.0277 0.15271 9.14148 0.363404 10.0665 0.784791C10.9915 1.19758 11.6994 1.78236 12.1902 2.53914C12.6905 3.28731 12.9406 4.16449 12.9406 5.17066C12.9406 5.72104 12.8368 6.28002 12.6291 6.84761C12.4309 7.40659 12.1525 7.96557 11.7938 8.52455C11.4445 9.08354 11.034 9.63392 10.562 10.1757C10.0995 10.7175 9.60398 11.2507 9.07541 11.7753L3.55371 17.2318H13.8892Z" fill="white" fill-opacity="0.8"/>
<path d="M30.6242 12.8717V14.8325H15.7298V13.4264L24.9609 0.410702H27.0988L24.8052 4.17739L18.703 12.8717H30.6242ZM27.7501 0.410702V19.1925H25.1308V0.410702H27.7501Z" fill="white" fill-opacity="0.8"/>
<path d="M46 14.1101C46 15.2538 45.7074 16.2256 45.1222 17.0254C44.5464 17.8166 43.763 18.4186 42.7719 18.8313C41.7903 19.2441 40.6812 19.4505 39.4448 19.4505C38.2083 19.4505 37.0945 19.2441 36.1034 18.8313C35.1123 18.4186 34.3289 17.8166 33.7532 17.0254C33.1774 16.2256 32.8895 15.2538 32.8895 14.1101C32.8895 13.3619 33.0452 12.6782 33.3567 12.059C33.6776 11.4313 34.126 10.8852 34.7018 10.4208C35.287 9.95641 35.976 9.59952 36.7689 9.35013C37.5712 9.09214 38.4537 8.96314 39.4164 8.96314C40.6812 8.96314 41.8092 9.18673 42.8002 9.63392C43.7913 10.0725 44.57 10.6788 45.1364 11.4528C45.7121 12.2267 46 13.1125 46 14.1101ZM43.3666 14.0585C43.3666 13.3619 43.2014 12.747 42.871 12.2138C42.5407 11.6721 42.0782 11.2507 41.4835 10.9497C40.8889 10.6487 40.1999 10.4982 39.4164 10.4982C38.6141 10.4982 37.9204 10.6487 37.3352 10.9497C36.7594 11.2507 36.3111 11.6721 35.9902 12.2138C35.6692 12.747 35.5088 13.3619 35.5088 14.0585C35.5088 14.7809 35.6645 15.4 35.976 15.916C36.2969 16.4234 36.75 16.8147 37.3352 17.0899C37.9298 17.3565 38.633 17.4898 39.4448 17.4898C40.2565 17.4898 40.955 17.3565 41.5402 17.0899C42.1254 16.8147 42.5737 16.4234 42.8852 15.916C43.2061 15.4 43.3666 14.7809 43.3666 14.0585ZM45.5186 5.29965C45.5186 6.21123 45.2543 7.0325 44.7258 7.76348C44.1972 8.49446 43.4751 9.07064 42.5596 9.49203C41.644 9.91341 40.6057 10.1241 39.4448 10.1241C38.2649 10.1241 37.2125 9.91341 36.2875 9.49203C35.3719 9.07064 34.6546 8.49446 34.1354 7.76348C33.6163 7.0325 33.3567 6.21123 33.3567 5.29965C33.3567 4.20749 33.6163 3.27871 34.1354 2.51334C34.664 1.74796 35.3861 1.16318 36.3016 0.758991C37.2172 0.354804 38.2602 0.15271 39.4306 0.15271C40.6104 0.15271 41.6582 0.354804 42.5737 0.758991C43.4893 1.16318 44.2066 1.74796 44.7258 2.51334C45.2543 3.27871 45.5186 4.20749 45.5186 5.29965ZM42.8994 5.33835C42.8994 4.71057 42.7531 4.15589 42.4605 3.6743C42.1679 3.19272 41.762 2.81433 41.2428 2.53914C40.7237 2.25535 40.1196 2.11345 39.4306 2.11345C38.7416 2.11345 38.1375 2.24675 37.6183 2.51334C37.1087 2.77133 36.7075 3.14112 36.4149 3.6227C36.1317 4.10429 35.9902 4.67617 35.9902 5.33835C35.9902 5.98333 36.1317 6.54662 36.4149 7.0282C36.7075 7.50979 37.1134 7.88387 37.6325 8.15047C38.1516 8.41706 38.7557 8.55035 39.4448 8.55035C40.1338 8.55035 40.7332 8.41706 41.2428 8.15047C41.762 7.88387 42.1679 7.50979 42.4605 7.0282C42.7531 6.54662 42.8994 5.98333 42.8994 5.33835Z" fill="white" fill-opacity="0.8"/>
</svg>
