<svg width="24" height="25" viewBox="0 0 24 25" fill="none" xmlns="http://www.w3.org/2000/svg">
<g opacity="0.8">
<path d="M19.513 12.9278C19.2318 12.6565 18.8503 12.504 18.4525 12.504C18.0548 12.504 17.6733 12.6565 17.392 12.9278L9.96706 20.0921L2.54207 12.9278C2.25916 12.6641 1.88026 12.5183 1.48697 12.5216C1.09367 12.5249 0.717453 12.6771 0.439341 12.9454C0.161228 13.2138 0.0034771 13.5768 5.91278e-05 13.9563C-0.00335884 14.3358 0.147833 14.7014 0.42107 14.9743L8.90656 23.1619C9.18785 23.4332 9.56931 23.5857 9.96706 23.5857C10.3648 23.5857 10.7463 23.4332 11.0276 23.1619L19.513 14.9743C19.7943 14.7029 19.9522 14.3348 19.9522 13.9511C19.9522 13.5673 19.7943 13.1992 19.513 12.9278Z" fill="white"/>
</g>
</svg>
