<svg width="21" height="21" viewBox="0 0 21 21" fill="none" xmlns="http://www.w3.org/2000/svg">
<g clip-path="url(#clip0_1_542)">
<path d="M20.4512 10.1814C20.4512 4.66797 15.974 0.198486 10.4512 0.198486C4.92832 0.198486 0.451172 4.66797 0.451172 10.1814C0.451172 15.164 4.10801 19.2941 8.88867 20.043V13.067H6.34961V10.1814H8.88867V7.98201C8.88867 5.48005 10.3816 4.09805 12.6658 4.09805C13.7596 4.09805 14.9043 4.29303 14.9043 4.29303V6.74975H13.6434C12.4012 6.74975 12.0137 7.51933 12.0137 8.30957V10.1814H14.7871L14.3437 13.067H12.0137V20.043C16.7943 19.2941 20.4512 15.164 20.4512 10.1814Z" fill="#1D2130"/>
</g>
<defs>
<clipPath id="clip0_1_542">
<rect width="20" height="19.9658" fill="white" transform="translate(0.451172 0.198486)"/>
</clipPath>
</defs>
</svg>
