<svg width="21" height="21" viewBox="0 0 21 21" fill="none" xmlns="http://www.w3.org/2000/svg">
<g clip-path="url(#clip0_1_546)">
<path d="M18.9706 0.198486H1.92761C1.11121 0.198486 0.45105 0.841914 0.45105 1.63742V18.7214C0.45105 19.5169 1.11121 20.1642 1.92761 20.1642H18.9706C19.787 20.1642 20.451 19.5169 20.451 18.7253V1.63742C20.451 0.841914 19.787 0.198486 18.9706 0.198486ZM6.38464 17.2123H3.41589V7.68174H6.38464V17.2123ZM4.90027 6.38319C3.94714 6.38319 3.17761 5.61498 3.17761 4.66738C3.17761 3.71979 3.94714 2.95158 4.90027 2.95158C5.84949 2.95158 6.61902 3.71979 6.61902 4.66738C6.61902 5.61108 5.84949 6.38319 4.90027 6.38319ZM17.494 17.2123H14.5292V12.5796C14.5292 11.476 14.5096 10.0527 12.9862 10.0527C11.4432 10.0527 11.2089 11.2576 11.2089 12.5016V17.2123H8.24793V7.68174H11.0917V8.9842H11.1307C11.5253 8.23548 12.494 7.44387 13.9354 7.44387C16.9393 7.44387 17.494 9.41705 17.494 11.983V17.2123Z" fill="#1D2130"/>
</g>
<defs>
<clipPath id="clip0_1_546">
<rect width="20" height="19.9658" fill="white" transform="translate(0.45105 0.198486)"/>
</clipPath>
</defs>
</svg>
