<svg width="139" height="23" viewBox="0 0 139 23" fill="none" xmlns="http://www.w3.org/2000/svg">
<path d="M135.281 14.4961C135.281 14.2539 135.211 14.0352 135.07 13.8398C134.93 13.6445 134.668 13.4648 134.285 13.3008C133.91 13.1289 133.367 12.9727 132.656 12.832C132.016 12.6914 131.418 12.5156 130.863 12.3047C130.316 12.0859 129.84 11.8242 129.434 11.5195C129.035 11.2148 128.723 10.8555 128.496 10.4414C128.27 10.0195 128.156 9.53906 128.156 9C128.156 8.46875 128.27 7.96875 128.496 7.5C128.73 7.03125 129.062 6.61719 129.492 6.25781C129.93 5.89062 130.461 5.60547 131.086 5.40234C131.719 5.19141 132.43 5.08594 133.219 5.08594C134.32 5.08594 135.266 5.26172 136.055 5.61328C136.852 5.96484 137.461 6.44922 137.883 7.06641C138.312 7.67578 138.527 8.37109 138.527 9.15234H135.152C135.152 8.82422 135.082 8.53125 134.941 8.27344C134.809 8.00781 134.598 7.80078 134.309 7.65234C134.027 7.49609 133.66 7.41797 133.207 7.41797C132.832 7.41797 132.508 7.48438 132.234 7.61719C131.961 7.74219 131.75 7.91406 131.602 8.13281C131.461 8.34375 131.391 8.57812 131.391 8.83594C131.391 9.03125 131.43 9.20703 131.508 9.36328C131.594 9.51172 131.73 9.64844 131.918 9.77344C132.105 9.89844 132.348 10.0156 132.645 10.125C132.949 10.2266 133.324 10.3203 133.77 10.4062C134.684 10.5938 135.5 10.8398 136.219 11.1445C136.938 11.4414 137.508 11.8477 137.93 12.3633C138.352 12.8711 138.562 13.5391 138.562 14.3672C138.562 14.9297 138.438 15.4453 138.188 15.9141C137.938 16.3828 137.578 16.793 137.109 17.1445C136.641 17.4883 136.078 17.7578 135.422 17.9531C134.773 18.1406 134.043 18.2344 133.23 18.2344C132.051 18.2344 131.051 18.0234 130.23 17.6016C129.418 17.1797 128.801 16.6445 128.379 15.9961C127.965 15.3398 127.758 14.668 127.758 13.9805H130.957C130.973 14.4414 131.09 14.8125 131.309 15.0938C131.535 15.375 131.82 15.5781 132.164 15.7031C132.516 15.8281 132.895 15.8906 133.301 15.8906C133.738 15.8906 134.102 15.832 134.391 15.7148C134.68 15.5898 134.898 15.4258 135.047 15.2227C135.203 15.0117 135.281 14.7695 135.281 14.4961Z" fill="#1D2130"/>
<path d="M118.301 7.75781V22.875H114.926V5.32031H118.055L118.301 7.75781ZM126.328 11.5195V11.7656C126.328 12.6875 126.219 13.543 126 14.332C125.789 15.1211 125.477 15.8086 125.062 16.3945C124.648 16.9727 124.133 17.4258 123.516 17.7539C122.906 18.0742 122.203 18.2344 121.406 18.2344C120.633 18.2344 119.961 18.0781 119.391 17.7656C118.82 17.4531 118.34 17.0156 117.949 16.4531C117.566 15.8828 117.258 15.2227 117.023 14.4727C116.789 13.7227 116.609 12.918 116.484 12.0586V11.4141C116.609 10.4922 116.789 9.64844 117.023 8.88281C117.258 8.10938 117.566 7.44141 117.949 6.87891C118.34 6.30859 118.816 5.86719 119.379 5.55469C119.949 5.24219 120.617 5.08594 121.383 5.08594C122.188 5.08594 122.895 5.23828 123.504 5.54297C124.121 5.84766 124.637 6.28516 125.051 6.85547C125.473 7.42578 125.789 8.10547 126 8.89453C126.219 9.68359 126.328 10.5586 126.328 11.5195ZM122.941 11.7656V11.5195C122.941 10.9805 122.895 10.4844 122.801 10.0312C122.715 9.57031 122.574 9.16797 122.379 8.82422C122.191 8.48047 121.941 8.21484 121.629 8.02734C121.324 7.83203 120.953 7.73438 120.516 7.73438C120.055 7.73438 119.66 7.80859 119.332 7.95703C119.012 8.10547 118.75 8.32031 118.547 8.60156C118.344 8.88281 118.191 9.21875 118.09 9.60938C117.988 10 117.926 10.4414 117.902 10.9336V12.5625C117.941 13.1406 118.051 13.6602 118.23 14.1211C118.41 14.5742 118.688 14.9336 119.062 15.1992C119.438 15.4648 119.93 15.5977 120.539 15.5977C120.984 15.5977 121.359 15.5 121.664 15.3047C121.969 15.1016 122.215 14.8242 122.402 14.4727C122.598 14.1211 122.734 13.7148 122.812 13.2539C122.898 12.793 122.941 12.2969 122.941 11.7656Z" fill="#1D2130"/>
<path d="M112.137 5.32031V18H108.75V5.32031H112.137ZM108.539 2.01562C108.539 1.52344 108.711 1.11719 109.055 0.796875C109.398 0.476562 109.859 0.316406 110.438 0.316406C111.008 0.316406 111.465 0.476562 111.809 0.796875C112.16 1.11719 112.336 1.52344 112.336 2.01562C112.336 2.50781 112.16 2.91406 111.809 3.23438C111.465 3.55469 111.008 3.71484 110.438 3.71484C109.859 3.71484 109.398 3.55469 109.055 3.23438C108.711 2.91406 108.539 2.50781 108.539 2.01562Z" fill="#1D2130"/>
<path d="M98.4141 0V18H95.0391V0H98.4141ZM97.9336 11.2148H97.0078C97.0156 10.332 97.1328 9.51953 97.3594 8.77734C97.5859 8.02734 97.9102 7.37891 98.332 6.83203C98.7539 6.27734 99.2578 5.84766 99.8438 5.54297C100.438 5.23828 101.094 5.08594 101.812 5.08594C102.438 5.08594 103.004 5.17578 103.512 5.35547C104.027 5.52734 104.469 5.80859 104.836 6.19922C105.211 6.58203 105.5 7.08594 105.703 7.71094C105.906 8.33594 106.008 9.09375 106.008 9.98438V18H102.609V9.96094C102.609 9.39844 102.527 8.95703 102.363 8.63672C102.207 8.30859 101.977 8.07812 101.672 7.94531C101.375 7.80469 101.008 7.73438 100.57 7.73438C100.086 7.73438 99.6719 7.82422 99.3281 8.00391C98.9922 8.18359 98.7227 8.43359 98.5195 8.75391C98.3164 9.06641 98.168 9.43359 98.0742 9.85547C97.9805 10.2773 97.9336 10.7305 97.9336 11.2148Z" fill="#1D2130"/>
<path d="M89.6484 14.4961C89.6484 14.2539 89.5781 14.0352 89.4375 13.8398C89.2969 13.6445 89.0352 13.4648 88.6523 13.3008C88.2773 13.1289 87.7344 12.9727 87.0234 12.832C86.3828 12.6914 85.7852 12.5156 85.2305 12.3047C84.6836 12.0859 84.207 11.8242 83.8008 11.5195C83.4023 11.2148 83.0898 10.8555 82.8633 10.4414C82.6367 10.0195 82.5234 9.53906 82.5234 9C82.5234 8.46875 82.6367 7.96875 82.8633 7.5C83.0977 7.03125 83.4297 6.61719 83.8594 6.25781C84.2969 5.89062 84.8281 5.60547 85.4531 5.40234C86.0859 5.19141 86.7969 5.08594 87.5859 5.08594C88.6875 5.08594 89.6328 5.26172 90.4219 5.61328C91.2188 5.96484 91.8281 6.44922 92.25 7.06641C92.6797 7.67578 92.8945 8.37109 92.8945 9.15234H89.5195C89.5195 8.82422 89.4492 8.53125 89.3086 8.27344C89.1758 8.00781 88.9648 7.80078 88.6758 7.65234C88.3945 7.49609 88.0273 7.41797 87.5742 7.41797C87.1992 7.41797 86.875 7.48438 86.6016 7.61719C86.3281 7.74219 86.1172 7.91406 85.9688 8.13281C85.8281 8.34375 85.7578 8.57812 85.7578 8.83594C85.7578 9.03125 85.7969 9.20703 85.875 9.36328C85.9609 9.51172 86.0977 9.64844 86.2852 9.77344C86.4727 9.89844 86.7148 10.0156 87.0117 10.125C87.3164 10.2266 87.6914 10.3203 88.1367 10.4062C89.0508 10.5938 89.8672 10.8398 90.5859 11.1445C91.3047 11.4414 91.875 11.8477 92.2969 12.3633C92.7188 12.8711 92.9297 13.5391 92.9297 14.3672C92.9297 14.9297 92.8047 15.4453 92.5547 15.9141C92.3047 16.3828 91.9453 16.793 91.4766 17.1445C91.0078 17.4883 90.4453 17.7578 89.7891 17.9531C89.1406 18.1406 88.4102 18.2344 87.5977 18.2344C86.418 18.2344 85.418 18.0234 84.5977 17.6016C83.7852 17.1797 83.168 16.6445 82.7461 15.9961C82.332 15.3398 82.125 14.668 82.125 13.9805H85.3242C85.3398 14.4414 85.457 14.8125 85.6758 15.0938C85.9023 15.375 86.1875 15.5781 86.5312 15.7031C86.8828 15.8281 87.2617 15.8906 87.668 15.8906C88.1055 15.8906 88.4688 15.832 88.7578 15.7148C89.0469 15.5898 89.2656 15.4258 89.4141 15.2227C89.5703 15.0117 89.6484 14.7695 89.6484 14.4961Z" fill="#1D2130"/>
<path d="M77.3789 8.08594V18H74.0039V5.32031H77.1797L77.3789 8.08594ZM81.1992 5.23828L81.1406 8.36719C80.9766 8.34375 80.7773 8.32422 80.543 8.30859C80.3164 8.28516 80.1094 8.27344 79.9219 8.27344C79.4453 8.27344 79.0312 8.33594 78.6797 8.46094C78.3359 8.57812 78.0469 8.75391 77.8125 8.98828C77.5859 9.22266 77.4141 9.50781 77.2969 9.84375C77.1875 10.1797 77.125 10.5625 77.1094 10.9922L76.4297 10.7812C76.4297 9.96094 76.5117 9.20703 76.6758 8.51953C76.8398 7.82422 77.0781 7.21875 77.3906 6.70312C77.7109 6.1875 78.1016 5.78906 78.5625 5.50781C79.0234 5.22656 79.5508 5.08594 80.1445 5.08594C80.332 5.08594 80.5234 5.10156 80.7188 5.13281C80.9141 5.15625 81.0742 5.19141 81.1992 5.23828Z" fill="#1D2130"/>
<path d="M68.0039 15.1406V9.49219C68.0039 9.08594 67.9375 8.73828 67.8047 8.44922C67.6719 8.15234 67.4648 7.92188 67.1836 7.75781C66.9102 7.59375 66.5547 7.51172 66.1172 7.51172C65.7422 7.51172 65.418 7.57812 65.1445 7.71094C64.8711 7.83594 64.6602 8.01953 64.5117 8.26172C64.3633 8.49609 64.2891 8.77344 64.2891 9.09375H60.9141C60.9141 8.55469 61.0391 8.04297 61.2891 7.55859C61.5391 7.07422 61.9023 6.64844 62.3789 6.28125C62.8555 5.90625 63.4219 5.61328 64.0781 5.40234C64.7422 5.19141 65.4844 5.08594 66.3047 5.08594C67.2891 5.08594 68.1641 5.25 68.9297 5.57812C69.6953 5.90625 70.2969 6.39844 70.7344 7.05469C71.1797 7.71094 71.4023 8.53125 71.4023 9.51562V14.9414C71.4023 15.6367 71.4453 16.207 71.5312 16.6523C71.6172 17.0898 71.7422 17.4727 71.9062 17.8008V18H68.4961C68.332 17.6562 68.207 17.2266 68.1211 16.7109C68.043 16.1875 68.0039 15.6641 68.0039 15.1406ZM68.4492 10.2773L68.4727 12.1875H66.5859C66.1406 12.1875 65.7539 12.2383 65.4258 12.3398C65.0977 12.4414 64.8281 12.5859 64.6172 12.7734C64.4062 12.9531 64.25 13.1641 64.1484 13.4062C64.0547 13.6484 64.0078 13.9141 64.0078 14.2031C64.0078 14.4922 64.0742 14.7539 64.207 14.9883C64.3398 15.2148 64.5312 15.3945 64.7812 15.5273C65.0312 15.6523 65.3242 15.7148 65.6602 15.7148C66.168 15.7148 66.6094 15.6133 66.9844 15.4102C67.3594 15.207 67.6484 14.957 67.8516 14.6602C68.0625 14.3633 68.1719 14.082 68.1797 13.8164L69.0703 15.2461C68.9453 15.5664 68.7734 15.8984 68.5547 16.2422C68.3438 16.5859 68.0742 16.9102 67.7461 17.2148C67.418 17.5117 67.0234 17.7578 66.5625 17.9531C66.1016 18.1406 65.5547 18.2344 64.9219 18.2344C64.1172 18.2344 63.3867 18.0742 62.7305 17.7539C62.082 17.4258 61.5664 16.9766 61.1836 16.4062C60.8086 15.8281 60.6211 15.1719 60.6211 14.4375C60.6211 13.7734 60.7461 13.1836 60.9961 12.668C61.2461 12.1523 61.6133 11.7188 62.0977 11.3672C62.5898 11.0078 63.2031 10.7383 63.9375 10.5586C64.6719 10.3711 65.5234 10.2773 66.4922 10.2773H68.4492Z" fill="#1D2130"/>
<path d="M58.3711 0V18H54.9844V0H58.3711Z" fill="#1D2130"/>
<path d="M40.7227 11.7891V11.543C40.7227 10.6133 40.8555 9.75781 41.1211 8.97656C41.3867 8.1875 41.7734 7.50391 42.2812 6.92578C42.7891 6.34766 43.4141 5.89844 44.1562 5.57812C44.8984 5.25 45.75 5.08594 46.7109 5.08594C47.6719 5.08594 48.5273 5.25 49.2773 5.57812C50.0273 5.89844 50.6562 6.34766 51.1641 6.92578C51.6797 7.50391 52.0703 8.1875 52.3359 8.97656C52.6016 9.75781 52.7344 10.6133 52.7344 11.543V11.7891C52.7344 12.7109 52.6016 13.5664 52.3359 14.3555C52.0703 15.1367 51.6797 15.8203 51.1641 16.4062C50.6562 16.9844 50.0312 17.4336 49.2891 17.7539C48.5469 18.0742 47.6953 18.2344 46.7344 18.2344C45.7734 18.2344 44.918 18.0742 44.168 17.7539C43.4258 17.4336 42.7969 16.9844 42.2812 16.4062C41.7734 15.8203 41.3867 15.1367 41.1211 14.3555C40.8555 13.5664 40.7227 12.7109 40.7227 11.7891ZM44.0977 11.543V11.7891C44.0977 12.3203 44.1445 12.8164 44.2383 13.2773C44.332 13.7383 44.4805 14.1445 44.6836 14.4961C44.8945 14.8398 45.168 15.1094 45.5039 15.3047C45.8398 15.5 46.25 15.5977 46.7344 15.5977C47.2031 15.5977 47.6055 15.5 47.9414 15.3047C48.2773 15.1094 48.5469 14.8398 48.75 14.4961C48.9531 14.1445 49.1016 13.7383 49.1953 13.2773C49.2969 12.8164 49.3477 12.3203 49.3477 11.7891V11.543C49.3477 11.0273 49.2969 10.543 49.1953 10.0898C49.1016 9.62891 48.9492 9.22266 48.7383 8.87109C48.5352 8.51172 48.2656 8.23047 47.9297 8.02734C47.5938 7.82422 47.1875 7.72266 46.7109 7.72266C46.2344 7.72266 45.8281 7.82422 45.4922 8.02734C45.1641 8.23047 44.8945 8.51172 44.6836 8.87109C44.4805 9.22266 44.332 9.62891 44.2383 10.0898C44.1445 10.543 44.0977 11.0273 44.0977 11.543Z" fill="#1D2130"/>
<path d="M31.1016 0V18H27.7266V0H31.1016ZM30.6211 11.2148H29.6953C29.7031 10.332 29.8203 9.51953 30.0469 8.77734C30.2734 8.02734 30.5977 7.37891 31.0195 6.83203C31.4414 6.27734 31.9453 5.84766 32.5312 5.54297C33.125 5.23828 33.7812 5.08594 34.5 5.08594C35.125 5.08594 35.6914 5.17578 36.1992 5.35547C36.7148 5.52734 37.1562 5.80859 37.5234 6.19922C37.8984 6.58203 38.1875 7.08594 38.3906 7.71094C38.5938 8.33594 38.6953 9.09375 38.6953 9.98438V18H35.2969V9.96094C35.2969 9.39844 35.2148 8.95703 35.0508 8.63672C34.8945 8.30859 34.6641 8.07812 34.3594 7.94531C34.0625 7.80469 33.6953 7.73438 33.2578 7.73438C32.7734 7.73438 32.3594 7.82422 32.0156 8.00391C31.6797 8.18359 31.4102 8.43359 31.207 8.75391C31.0039 9.06641 30.8555 9.43359 30.7617 9.85547C30.668 10.2773 30.6211 10.7305 30.6211 11.2148Z" fill="#1D2130"/>
<path d="M20.5312 15.5977C20.9453 15.5977 21.3125 15.5195 21.6328 15.3633C21.9531 15.1992 22.2031 14.9727 22.3828 14.6836C22.5703 14.3867 22.668 14.0391 22.6758 13.6406H25.8516C25.8438 14.5312 25.6055 15.3242 25.1367 16.0195C24.668 16.707 24.0391 17.25 23.25 17.6484C22.4609 18.0391 21.5781 18.2344 20.6016 18.2344C19.6172 18.2344 18.7578 18.0703 18.0234 17.7422C17.2969 17.4141 16.6914 16.9609 16.207 16.3828C15.7227 15.7969 15.3594 15.1172 15.1172 14.3438C14.875 13.5625 14.7539 12.7266 14.7539 11.8359V11.4961C14.7539 10.5977 14.875 9.76172 15.1172 8.98828C15.3594 8.20703 15.7227 7.52734 16.207 6.94922C16.6914 6.36328 17.2969 5.90625 18.0234 5.57812C18.75 5.25 19.6016 5.08594 20.5781 5.08594C21.6172 5.08594 22.5273 5.28516 23.3086 5.68359C24.0977 6.08203 24.7148 6.65234 25.1602 7.39453C25.6133 8.12891 25.8438 9 25.8516 10.0078H22.6758C22.668 9.58594 22.5781 9.20312 22.4062 8.85938C22.2422 8.51562 22 8.24219 21.6797 8.03906C21.3672 7.82812 20.9805 7.72266 20.5195 7.72266C20.0273 7.72266 19.625 7.82812 19.3125 8.03906C19 8.24219 18.7578 8.52344 18.5859 8.88281C18.4141 9.23438 18.293 9.63672 18.2227 10.0898C18.1602 10.5352 18.1289 11.0039 18.1289 11.4961V11.8359C18.1289 12.3281 18.1602 12.8008 18.2227 13.2539C18.2852 13.707 18.4023 14.1094 18.5742 14.4609C18.7539 14.8125 19 15.0898 19.3125 15.293C19.625 15.4961 20.0312 15.5977 20.5312 15.5977Z" fill="#1D2130"/>
<path d="M9.59766 13.5352C9.59766 13.2305 9.55078 12.957 9.45703 12.7148C9.37109 12.4648 9.20703 12.2383 8.96484 12.0352C8.72266 11.8242 8.38281 11.6172 7.94531 11.4141C7.50781 11.2109 6.94141 11 6.24609 10.7812C5.47266 10.5312 4.73828 10.25 4.04297 9.9375C3.35547 9.625 2.74609 9.26172 2.21484 8.84766C1.69141 8.42578 1.27734 7.9375 0.972656 7.38281C0.675781 6.82812 0.527344 6.18359 0.527344 5.44922C0.527344 4.73828 0.683594 4.09375 0.996094 3.51562C1.30859 2.92969 1.74609 2.42969 2.30859 2.01562C2.87109 1.59375 3.53516 1.26953 4.30078 1.04297C5.07422 0.816406 5.92188 0.703125 6.84375 0.703125C8.10156 0.703125 9.19922 0.929688 10.1367 1.38281C11.0742 1.83594 11.8008 2.45703 12.3164 3.24609C12.8398 4.03516 13.1016 4.9375 13.1016 5.95312H9.60938C9.60938 5.45312 9.50391 5.01562 9.29297 4.64062C9.08984 4.25781 8.77734 3.95703 8.35547 3.73828C7.94141 3.51953 7.41797 3.41016 6.78516 3.41016C6.17578 3.41016 5.66797 3.50391 5.26172 3.69141C4.85547 3.87109 4.55078 4.11719 4.34766 4.42969C4.14453 4.73438 4.04297 5.07812 4.04297 5.46094C4.04297 5.75 4.11328 6.01172 4.25391 6.24609C4.40234 6.48047 4.62109 6.69922 4.91016 6.90234C5.19922 7.10547 5.55469 7.29688 5.97656 7.47656C6.39844 7.65625 6.88672 7.83203 7.44141 8.00391C8.37109 8.28516 9.1875 8.60156 9.89062 8.95312C10.6016 9.30469 11.1953 9.69922 11.6719 10.1367C12.1484 10.5742 12.5078 11.0703 12.75 11.625C12.9922 12.1797 13.1133 12.8086 13.1133 13.5117C13.1133 14.2539 12.9688 14.918 12.6797 15.5039C12.3906 16.0898 11.9727 16.5859 11.4258 16.9922C10.8789 17.3984 10.2266 17.707 9.46875 17.918C8.71094 18.1289 7.86328 18.2344 6.92578 18.2344C6.08203 18.2344 5.25 18.125 4.42969 17.9062C3.60938 17.6797 2.86328 17.3398 2.19141 16.8867C1.52734 16.4336 0.996094 15.8555 0.597656 15.1523C0.199219 14.4492 0 13.6172 0 12.6562H3.52734C3.52734 13.1875 3.60938 13.6367 3.77344 14.0039C3.9375 14.3711 4.16797 14.668 4.46484 14.8945C4.76953 15.1211 5.12891 15.2852 5.54297 15.3867C5.96484 15.4883 6.42578 15.5391 6.92578 15.5391C7.53516 15.5391 8.03516 15.4531 8.42578 15.2812C8.82422 15.1094 9.11719 14.8711 9.30469 14.5664C9.5 14.2617 9.59766 13.918 9.59766 13.5352Z" fill="#1D2130"/>
</svg>
