<svg width="21" height="21" viewBox="0 0 21 21" fill="none" xmlns="http://www.w3.org/2000/svg">
<g clip-path="url(#clip0_1_544)">
<path d="M6.74297 18.2926C14.2883 18.2926 18.4164 12.0506 18.4164 6.63915C18.4164 6.46367 18.4125 6.28429 18.4047 6.10881C19.2077 5.52905 19.9007 4.81094 20.4512 3.98823C19.7033 4.32041 18.9092 4.53735 18.0961 4.63165C18.9522 4.11934 19.5933 3.31453 19.9004 2.3664C19.095 2.84291 18.2142 3.17904 17.2957 3.3604C16.6769 2.70398 15.8587 2.26936 14.9676 2.12372C14.0765 1.97808 13.1622 2.12954 12.366 2.55468C11.5697 2.97983 10.936 3.65497 10.5627 4.47573C10.1894 5.2965 10.0974 6.21717 10.3008 7.0954C8.66992 7.0137 7.07445 6.59077 5.61782 5.85403C4.16119 5.11728 2.87592 4.08318 1.84531 2.81875C1.3215 3.72031 1.16122 4.78714 1.39703 5.80244C1.63284 6.81774 2.24706 7.70531 3.11484 8.28476C2.46336 8.26411 1.82615 8.08901 1.25586 7.77392V7.82461C1.25528 8.77073 1.58292 9.68786 2.1831 10.4201C2.78327 11.1523 3.61894 11.6545 4.54805 11.8412C3.94455 12.006 3.31116 12.03 2.69687 11.9114C2.95905 12.725 3.46915 13.4367 4.15598 13.947C4.84281 14.4573 5.67211 14.7409 6.52813 14.758C5.07486 15.8976 3.27965 16.5158 1.43164 16.5128C1.10391 16.5123 0.776504 16.4923 0.451172 16.4528C2.32855 17.6552 4.51245 18.2938 6.74297 18.2926Z" fill="#1D2130"/>
</g>
<defs>
<clipPath id="clip0_1_544">
<rect width="20" height="19.9658" fill="white" transform="translate(0.451172 0.198486)"/>
</clipPath>
</defs>
</svg>
