<svg width="26" height="18" viewBox="0 0 26 18" fill="none" xmlns="http://www.w3.org/2000/svg">
<path d="M12.6934 6.52833C12.9336 6.59317 13.1693 6.43449 13.0896 6.26567C12.5431 5.10676 10.5644 4.67444 8.72488 5.70262C7.75729 6.24352 7.39369 6.35845 7.38452 6.36135C8.0224 6.80022 8.75114 8.2729 10.3415 8.43577C12.0935 8.65434 13.644 7.46828 12.3754 6.92553C11.5411 6.56863 10.5588 6.36131 9.50592 6.36131C10.6098 6.19009 11.7117 6.26351 12.6934 6.52833Z" fill="#B5C8AC"/>
<path d="M20.6265 5.70253C17.4512 3.9277 15.4262 6.72663 16.6849 6.44918C17.5789 6.25213 18.5562 6.20921 19.5366 6.36126C17.8756 6.36126 16.3444 6.88507 15.3236 7.73767C15.4074 6.39779 15.5342 5.5591 15.6813 4.93522C16.5297 4.91515 17.6606 4.44367 18.2816 3.61866C19.3523 2.30018 18.8558 0.948298 18.696 0.0952606C17.8594 0.655838 14.205 -0.00101097 12.7563 1.70726C12.1163 2.46187 12.3023 3.38013 12.9755 4.05211C13.1886 4.26484 13.6982 4.16277 13.7127 3.90461C13.7759 2.78157 14.5882 1.93308 16.1024 1.46313C15.4229 2.06894 14.9768 2.7472 14.7463 3.44822C14.3881 4.54025 14.0139 5.2566 13.8765 8.73723C13.8625 9.09022 14.2781 9.3824 14.7912 9.37797C15.1627 9.37476 15.4809 9.21256 15.6237 8.97658C15.841 8.61768 16.1946 8.24623 16.7701 7.90591C17.3169 8.32185 18.1491 8.54316 19.0101 8.43572C20.5937 8.27356 21.3327 6.79765 21.967 6.36122C21.9577 6.3584 21.5941 6.24347 20.6265 5.70253Z" fill="#B5C8AC"/>
<path d="M25.2943 10.0394C24.3017 9.57591 23.2213 9.90616 22.7251 10.1033L16.4987 13.2392L12.853 13.2397L11.9416 12.6125H15.2897C16.2967 12.6125 17.4244 12.1612 17.4244 11.3579C17.4244 10.5051 16.2967 10.1033 15.2897 10.1033H14.035C13.103 10.1033 12.0137 10.1605 11.2458 9.87759C10.5161 9.62209 9.67588 9.4767 8.77897 9.4767C7.2729 9.4767 5.92495 9.88986 5.00128 10.5414L0.0930176 13.8663L5.56158 17.6294L7.38443 15.7479H15.9983C16.917 15.7479 17.8038 15.516 18.4905 15.0962L25.3566 10.899C25.7384 10.6657 25.7168 10.2366 25.2943 10.0394Z" fill="#B5C8AC"/>
</svg>
