<svg width="27" height="21" viewBox="0 0 27 21" fill="none" xmlns="http://www.w3.org/2000/svg">
<path d="M24.4488 15.2116V16.2503C24.4488 16.9377 23.8382 17.5256 22.9823 17.7551C22.9827 17.7813 22.9836 17.8072 22.9836 17.8334V20.6657C24.7631 20.4033 26.1045 19.2806 26.1045 17.9395V15.2115L24.4488 15.2116Z" fill="#B5C8AC"/>
<path d="M12.9494 7.40571V6.31963C12.9494 5.37953 12.4591 4.46833 11.5684 3.75356C10.7346 3.08448 9.63774 2.65934 8.45261 2.54136C8.19026 2.36094 7.71123 2.03178 7.2309 1.70323C6.81551 1.41898 6.48346 1.19257 6.2434 1.0303C6.10573 0.937241 5.99036 0.859719 5.90853 0.805731C5.72952 0.687602 5.3966 0.467495 4.90328 0.609772L4.37533 0.762355L4.4446 3.09478L4.31451 3.16154C3.46554 3.59744 2.8969 4.26838 2.75079 5.00484L0.486163 6.0783L0.478587 6.81583C0.473175 7.37833 0.777088 7.90776 1.33469 8.3069C1.89252 8.70605 2.63541 8.92585 3.42701 8.92585H5.15157V10.0073C5.15157 10.5446 5.273 11.0754 5.51198 11.5851L6.7904 14.3102V18.4497C5.4492 18.6736 4.44568 19.5305 4.44265 20.5504L4.43984 20.7223L9.37582 20.7227C9.51089 19.8041 10.4592 19.0542 11.6982 18.8448V18.123C11.6982 16.148 13.9592 14.5414 16.7383 14.5414H16.8602V15.7179H16.7383C14.8722 15.7179 13.354 16.7968 13.354 18.123V19.9629H12.4013C11.7463 19.9629 11.1954 20.2879 11.0512 20.7229L21.3767 20.7241V17.8335C21.3767 15.2656 20.0221 12.8152 17.5624 10.9339L12.9494 7.40571Z" fill="#B5C8AC"/>
</svg>
