<svg width="22" height="18" viewBox="0 0 22 18" fill="none" xmlns="http://www.w3.org/2000/svg">
<path d="M11.3474 14.9382H12.6034V17.75H11.3474V14.9382Z" fill="#B5C8AC"/>
<path d="M8.83564 14.9382H10.0915V17.75H8.83564V14.9382Z" fill="#B5C8AC"/>
<path d="M14.9477 0.193207H6.49128C6.14449 0.193207 5.86333 0.423503 5.86333 0.707567V17.75H7.57973V14.4238C7.57973 14.1398 7.86089 13.9095 8.20769 13.9095H13.2313C13.5781 13.9095 13.8593 14.1398 13.8593 14.4238V17.75H15.5757V0.707567C15.5757 0.423503 15.2945 0.193207 14.9477 0.193207ZM8.83564 12.3664C8.83564 12.6505 8.55448 12.8808 8.20769 12.8808C7.86089 12.8808 7.57973 12.6505 7.57973 12.3664V11.3377C7.57973 11.0536 7.86089 10.8233 8.20769 10.8233C8.55448 10.8233 8.83564 11.0536 8.83564 11.3377V12.3664ZM8.83564 9.28023C8.83564 9.5643 8.55448 9.79459 8.20769 9.79459C7.86089 9.79459 7.57973 9.5643 7.57973 9.28023V8.25151C7.57973 7.96745 7.86089 7.73715 8.20769 7.73715C8.55448 7.73715 8.83564 7.96745 8.83564 8.25151V9.28023ZM11.3474 12.3664C11.3474 12.6505 11.0663 12.8808 10.7195 12.8808C10.3727 12.8808 10.0915 12.6505 10.0915 12.3664V11.3377C10.0915 11.0536 10.3727 10.8233 10.7195 10.8233C11.0663 10.8233 11.3474 11.0536 11.3474 11.3377V12.3664ZM11.3474 9.28023C11.3474 9.5643 11.0663 9.79459 10.7195 9.79459C10.3727 9.79459 10.0915 9.5643 10.0915 9.28023V8.25151C10.0915 7.96745 10.3727 7.73715 10.7195 7.73715C11.0663 7.73715 11.3474 7.96745 11.3474 8.25151V9.28023ZM13.8593 12.3664C13.8593 12.6505 13.5781 12.8808 13.2313 12.8808C12.8845 12.8808 12.6034 12.6505 12.6034 12.3664V11.3377C12.6034 11.0536 12.8845 10.8233 13.2313 10.8233C13.5781 10.8233 13.8593 11.0536 13.8593 11.3377V12.3664ZM13.8593 9.28023C13.8593 9.5643 13.5781 9.79459 13.2313 9.79459C12.8845 9.79459 12.6034 9.5643 12.6034 9.28023V8.25151C12.6034 7.96745 12.8845 7.73715 13.2313 7.73715C13.5781 7.73715 13.8593 7.96745 13.8593 8.25151V9.28023ZM8.83564 6.19407C8.83564 6.47814 8.55448 6.70843 8.20769 6.70843C7.86089 6.70843 7.57973 6.47814 7.57973 6.19407V5.16535C7.57973 4.88129 7.86089 4.65099 8.20769 4.65099C8.55448 4.65099 8.83564 4.88129 8.83564 5.16535V6.19407ZM11.3474 6.19407C11.3474 6.47814 11.0663 6.70843 10.7195 6.70843C10.3727 6.70843 10.0915 6.47814 10.0915 6.19407V5.16535C10.0915 4.88129 10.3727 4.65099 10.7195 4.65099C11.0663 4.65099 11.3474 4.88129 11.3474 5.16535V6.19407ZM13.8593 6.19407C13.8593 6.47814 13.5781 6.70843 13.2313 6.70843C12.8845 6.70843 12.6034 6.47814 12.6034 6.19407V5.16535C12.6034 4.88129 12.8845 4.65099 13.2313 4.65099C13.5781 4.65099 13.8593 4.88129 13.8593 5.16535V6.19407ZM8.83564 3.10791C8.83564 3.39198 8.55448 3.62227 8.20769 3.62227C7.86089 3.62227 7.57973 3.39198 7.57973 3.10791V2.07919C7.57973 1.79513 7.86089 1.56483 8.20769 1.56483C8.55448 1.56483 8.83564 1.79513 8.83564 2.07919V3.10791ZM11.3474 3.10791C11.3474 3.39198 11.0663 3.62227 10.7195 3.62227C10.3727 3.62227 10.0915 3.39198 10.0915 3.10791V2.07919C10.0915 1.79513 10.3727 1.56483 10.7195 1.56483C11.0663 1.56483 11.3474 1.79513 11.3474 2.07919V3.10791ZM13.8593 3.10791C13.8593 3.39198 13.5781 3.62227 13.2313 3.62227C12.8845 3.62227 12.6034 3.39198 12.6034 3.10791V2.07919C12.6034 1.79513 12.8845 1.56483 13.2313 1.56483C13.5781 1.56483 13.8593 1.79513 13.8593 2.07919V3.10791Z" fill="#B5C8AC"/>
<path d="M20.8086 7.05134H16.8316V17.75H20.8086C21.1554 17.75 21.4366 17.5197 21.4366 17.2357V7.5657C21.4366 7.28164 21.1554 7.05134 20.8086 7.05134ZM19.762 13.738C19.762 14.0221 19.4809 14.2524 19.1341 14.2524C18.7873 14.2524 18.5061 14.0221 18.5061 13.738V12.7093C18.5061 12.4252 18.7873 12.1949 19.1341 12.1949C19.4809 12.1949 19.762 12.4252 19.762 12.7093V13.738ZM19.762 10.6519C19.762 10.9359 19.4809 11.1662 19.1341 11.1662C18.7873 11.1662 18.5061 10.9359 18.5061 10.6519V9.62314C18.5061 9.33908 18.7873 9.10878 19.1341 9.10878C19.4809 9.10878 19.762 9.33908 19.762 9.62314V10.6519Z" fill="#B5C8AC"/>
<path d="M0.630394 7.05134C0.283597 7.05134 0.00244141 7.28164 0.00244141 7.5657V17.2357C0.00244141 17.5197 0.283597 17.75 0.630394 17.75H4.60743V7.05134H0.630394ZM2.93289 13.738C2.93289 14.0221 2.65173 14.2524 2.30493 14.2524C1.95814 14.2524 1.67698 14.0221 1.67698 13.738V12.7093C1.67698 12.4252 1.95814 12.1949 2.30493 12.1949C2.65173 12.1949 2.93289 12.4252 2.93289 12.7093V13.738ZM2.93289 10.6519C2.93289 10.9359 2.65173 11.1662 2.30493 11.1662C1.95814 11.1662 1.67698 10.9359 1.67698 10.6519V9.62314C1.67698 9.33908 1.95814 9.10878 2.30493 9.10878C2.65173 9.10878 2.93289 9.33908 2.93289 9.62314V10.6519Z" fill="#B5C8AC"/>
</svg>
