<svg width="26" height="17" viewBox="0 0 26 17" fill="none" xmlns="http://www.w3.org/2000/svg">
<path d="M25.3399 14.9597C24.9457 14.7338 24.5988 14.4564 24.3128 14.1385C23.628 13.4969 22.7565 12.7013 21.1379 12.7013C19.5194 12.7013 18.679 13.4712 17.9631 14.1642C17.2472 14.8571 16.7803 15.2677 15.7221 15.2677C14.6638 15.2677 14.1347 14.7801 13.4811 14.1642C12.8274 13.5483 11.9559 12.7013 10.3062 12.7013C8.65656 12.7013 7.84733 13.4712 7.1314 14.1642C6.41553 14.8571 5.94863 15.2677 4.89038 15.2677C3.83212 15.2677 3.30296 14.7801 2.64935 14.1642C2.20503 13.6803 1.64316 13.2783 0.999677 12.9836C0.690237 12.8561 0.314012 12.9595 0.159292 13.2146C0.00457157 13.4698 0.12998 13.78 0.43942 13.9075C0.928126 14.1504 1.36029 14.4633 1.71555 14.8314C2.43142 15.5244 3.2718 16.2943 4.89038 16.2943C6.50895 16.2943 7.34928 15.5244 8.06521 14.8314C8.78108 14.1385 9.24798 13.7279 10.3062 13.7279C11.3645 13.7279 11.8936 14.2155 12.5473 14.8314C13.2009 15.4474 14.0724 16.2943 15.7221 16.2943C17.3718 16.2943 18.181 15.5244 18.8969 14.8314C19.6128 14.1385 20.0797 13.7279 21.1379 13.7279C22.1962 13.7279 22.7254 14.2155 23.379 14.8314C23.7417 15.2155 24.1718 15.5528 24.6551 15.8323C24.9473 15.9882 25.3376 15.9193 25.5266 15.6783C25.7158 15.4374 25.6322 15.1157 25.3399 14.9597Z" fill="#B5C8AC"/>
<path d="M25.3399 11.1102C24.9457 10.8842 24.5988 10.6068 24.3128 10.2889C23.628 9.64733 22.7565 8.85174 21.1379 8.85174C19.5194 8.85174 18.679 9.62164 17.9631 10.3146C17.2472 11.0075 16.7803 11.4182 15.7221 11.4182C14.6638 11.4182 14.1347 10.9305 13.4811 10.3146C12.8274 9.69866 11.9559 8.85174 10.3062 8.85174C8.65656 8.85174 7.84733 9.62164 7.1314 10.3146C6.41553 11.0075 5.94863 11.4182 4.89038 11.4182C3.83212 11.4182 3.30296 10.9305 2.64935 10.3146C2.20503 9.83075 1.64316 9.42869 0.999677 9.13405C0.690237 9.00648 0.314012 9.10988 0.159292 9.36502C0.00457157 9.62017 0.12998 9.93037 0.43942 10.0579C0.928126 10.3008 1.36029 10.6137 1.71555 10.9818C2.43142 11.6748 3.2718 12.4447 4.89038 12.4447C6.50895 12.4447 7.34928 11.6748 8.06521 10.9818C8.78108 10.2889 9.24798 9.8783 10.3062 9.8783C11.3645 9.8783 11.8936 10.3659 12.5473 10.9818C13.2009 11.5978 14.0724 12.4447 15.7221 12.4447C17.3718 12.4447 18.181 11.6748 18.8969 10.9818C19.6128 10.2889 20.0797 9.8783 21.1379 9.8783C22.1962 9.8783 22.7254 10.3659 23.379 10.9818C23.7417 11.3659 24.1718 11.7032 24.6551 11.9827C24.9473 12.1386 25.3376 12.0697 25.5266 11.8287C25.7158 11.5878 25.6322 11.2661 25.3399 11.1102Z" fill="#B5C8AC"/>
<path d="M25.3399 7.00378C24.9457 6.77786 24.5988 6.50047 24.3128 6.18255C23.628 5.54096 22.7565 4.74537 21.1379 4.74537C19.5194 4.74537 18.679 5.51527 17.9631 6.20824C17.2472 6.90121 16.7803 7.31178 15.7221 7.31178C14.6638 7.31178 14.1347 6.82414 13.4811 6.20824C12.8274 5.59234 11.9559 4.74537 10.3062 4.74537C8.65656 4.74537 7.84733 5.51527 7.1314 6.20824C6.41553 6.90116 5.94863 7.31178 4.89038 7.31178C3.83212 7.31178 3.30296 6.82414 2.64935 6.20824C2.20503 5.72438 1.64316 5.32231 0.999677 5.02767C0.690237 4.9001 0.314012 5.00351 0.159292 5.25865C0.00457157 5.51379 0.12998 5.824 0.43942 5.95157C0.928126 6.19443 1.36029 6.50735 1.71555 6.87547C2.43142 7.56839 3.2718 8.33834 4.89038 8.33834C6.50895 8.33834 7.34928 7.56844 8.06521 6.87547C8.78108 6.18255 9.24798 5.77193 10.3062 5.77193C11.3645 5.77193 11.8936 6.25957 12.5473 6.87547C13.2009 7.49137 14.0724 8.33834 15.7221 8.33834C17.3718 8.33834 18.181 7.56844 18.8969 6.87547C19.6129 6.1825 20.0797 5.77193 21.1379 5.77193C22.1962 5.77193 22.7254 6.25957 23.379 6.87547C23.7417 7.25951 24.1718 7.59684 24.6551 7.87634C24.9473 8.03226 25.3376 7.96334 25.5266 7.72234C25.7158 7.48145 25.6322 7.15969 25.3399 7.00378Z" fill="#B5C8AC"/>
<path d="M0.439664 2.10209C0.92837 2.34495 1.36054 2.65786 1.71579 3.02599C2.43166 3.71891 3.27205 4.48886 4.89062 4.48886C6.5092 4.48886 7.34952 3.71896 8.06545 3.02599C8.78132 2.33306 9.24822 1.92245 10.3065 1.92245C11.3647 1.92245 11.8939 2.41009 12.5475 3.02599C13.2011 3.64193 14.0727 4.48886 15.7223 4.48886C17.372 4.48886 18.1812 3.71896 18.8972 3.02599C19.613 2.33306 20.0799 1.92245 21.1382 1.92245C22.1965 1.92245 22.7256 2.41009 23.3792 3.02599C23.742 3.41003 24.1721 3.74735 24.6554 4.02691C24.9476 4.18282 25.3378 4.11385 25.5269 3.87291C25.716 3.63196 25.6324 3.31021 25.3401 3.15429C24.9459 2.92838 24.599 2.65098 24.313 2.33306C23.6282 1.69147 22.7567 0.895882 21.1381 0.895882C19.5196 0.895882 18.6792 1.66578 17.9633 2.35875C17.2474 3.05168 16.7805 3.46229 15.7223 3.46229C14.664 3.46229 14.1349 2.97465 13.4812 2.35875C12.8276 1.7428 11.9561 0.895882 10.3064 0.895882C8.65675 0.895882 7.84752 1.66578 7.13159 2.35875C6.41572 3.05168 5.94882 3.46229 4.89056 3.46229C3.83231 3.46229 3.30327 2.97465 2.64959 2.3587C2.20527 1.87485 1.64341 1.47278 0.999921 1.17814C0.690481 1.05057 0.314256 1.15397 0.159536 1.40911C0.00481588 1.66426 0.130284 1.97452 0.439664 2.10209Z" fill="#B5C8AC"/>
</svg>
